<svg xmlns="http://www.w3.org/2000/svg" width="512" height="104" viewBox="0 0 512 104"><rect width="100%" height="100%" rx="16" fill="#132e20"/><rect x="8" y="8" width="48" height="48" rx="10" fill="#ffaaa7"/><rect x="64" y="8" width="48" height="48" rx="10" fill="#ffaf7e"/><rect x="120" y="8" width="48" height="48" rx="10" fill="#e0c262"/><rect x="176" y="8" width="48" height="48" rx="10" fill="#4dbf74"/><rect x="232" y="8" width="48" height="48" rx="10" fill="#65ddbb"/><rect x="288" y="8" width="48" height="48" rx="10" fill="#4cdbe3"/><rect x="344" y="8" width="48" height="48" rx="10" fill="#96c9fe"/><rect x="400" y="8" width="48" height="48" rx="10" fill="#d5b2ff"/><rect x="456" y="8" width="48" height="48" rx="10" fill="#fea4cc"/><rect x="8" y="64" width="42.4" height="32" rx="10" fill="#0b1d13"/><rect x="58.4" y="64" width="42.4" height="32" rx="10" fill="#0e2419"/><rect x="108.8" y="64" width="42.4" height="32" rx="10" fill="#132e20"/><rect x="159.2" y="64" width="42.4" height="32" rx="10" fill="#20392c"/><rect x="209.6" y="64" width="42.4" height="32" rx="10" fill="#2e4639"/><rect x="260" y="64" width="42.4" height="32" rx="10" fill="#3c5346"/><rect x="310.4" y="64" width="42.4" height="32" rx="10" fill="#63776c"/><rect x="360.8" y="64" width="42.4" height="32" rx="10" fill="#7f9187"/><rect x="411.2" y="64" width="42.4" height="32" rx="10" fill="#bdccc3"/><rect x="461.59999999999997" y="64" width="42.4" height="32" rx="10" fill="#e7f2eb"/></svg>
