<svg xmlns="http://www.w3.org/2000/svg" width="512" height="104" viewBox="0 0 512 104"><rect width="100%" height="100%" rx="16" fill="#edfbf3"/><rect x="8" y="8" width="48" height="48" rx="10" fill="#ad4b4b"/><rect x="64" y="8" width="48" height="48" rx="10" fill="#a85514"/><rect x="120" y="8" width="48" height="48" rx="10" fill="#866c02"/><rect x="176" y="8" width="48" height="48" rx="10" fill="#048149"/><rect x="232" y="8" width="48" height="48" rx="10" fill="#037e65"/><rect x="288" y="8" width="48" height="48" rx="10" fill="#017b80"/><rect x="344" y="8" width="48" height="48" rx="10" fill="#2672b7"/><rect x="400" y="8" width="48" height="48" rx="10" fill="#8058ab"/><rect x="456" y="8" width="48" height="48" rx="10" fill="#a54a77"/><rect x="8" y="64" width="42.4" height="32" rx="10" fill="#c7ded1"/><rect x="58.4" y="64" width="42.4" height="32" rx="10" fill="#d7eadf"/><rect x="108.8" y="64" width="42.4" height="32" rx="10" fill="#edfbf3"/><rect x="159.2" y="64" width="42.4" height="32" rx="10" fill="#daeee2"/><rect x="209.6" y="64" width="42.4" height="32" rx="10" fill="#cbe1d4"/><rect x="260" y="64" width="42.4" height="32" rx="10" fill="#bdd5c7"/><rect x="310.4" y="64" width="42.4" height="32" rx="10" fill="#83988c"/><rect x="360.8" y="64" width="42.4" height="32" rx="10" fill="#607268"/><rect x="411.2" y="64" width="42.4" height="32" rx="10" fill="#3f5247"/><rect x="461.59999999999997" y="64" width="42.4" height="32" rx="10" fill="#192e23"/></svg>
